<svg width="20" height="20" viewBox="0 0 20 20" fill="none" xmlns="http://www.w3.org/2000/svg">
    <path
        d="M9.73333 12.8085C9.575 12.8085 9.41666 12.7502 9.29166 12.6252C9.05 12.3835 9.05 11.9835 9.29166 11.7419L10.9833 10.0502L9.29166 8.35853C9.05 8.11686 9.05 7.71686 9.29166 7.4752C9.53333 7.23353 9.93333 7.23353 10.175 7.4752L12.3083 9.60853C12.55 9.85019 12.55 10.2502 12.3083 10.4919L10.175 12.6252C10.0583 12.7502 9.89166 12.8085 9.73333 12.8085Z"
        fill="#B5BCC4" />
    <path
        d="M11.8083 10.6748H3.33331C2.99165 10.6748 2.70831 10.3915 2.70831 10.0498C2.70831 9.70814 2.99165 9.4248 3.33331 9.4248H11.8083C12.15 9.4248 12.4333 9.70814 12.4333 10.0498C12.4333 10.3915 12.15 10.6748 11.8083 10.6748Z"
        fill="#B5BCC4" />
    <path
        d="M10 17.2913C9.65833 17.2913 9.375 17.008 9.375 16.6663C9.375 16.3247 9.65833 16.0413 10 16.0413C13.5583 16.0413 16.0417 13.558 16.0417 9.99967C16.0417 6.44134 13.5583 3.95801 10 3.95801C9.65833 3.95801 9.375 3.67467 9.375 3.33301C9.375 2.99134 9.65833 2.70801 10 2.70801C14.2917 2.70801 17.2917 5.70801 17.2917 9.99967C17.2917 14.2913 14.2917 17.2913 10 17.2913Z"
        fill="#B5BCC4" />
</svg>