<svg width="22" height="23" viewBox="0 0 22 23" fill="none" xmlns="http://www.w3.org/2000/svg">
<path d="M1.83325 16.1384H10.9999" stroke="#DCDFE4" stroke-width="1.5" stroke-miterlimit="10" stroke-linecap="round" stroke-linejoin="round"/>
<path d="M3.86823 12.875H8.96495C10.5966 12.875 10.9999 13.2783 10.9999 14.8917V18.6592C10.9999 20.2725 10.5966 20.6758 8.96495 20.6758H3.86823C2.23656 20.6758 1.83325 20.2725 1.83325 18.6592V14.8917C1.83325 13.2783 2.23656 12.875 3.86823 12.875Z" stroke="#DCDFE4" stroke-width="1.5" stroke-linecap="round" stroke-linejoin="round"/>
<path d="M20.1667 14.25C20.1667 17.7975 17.2975 20.6667 13.75 20.6667L14.7125 19.0625" stroke="#DCDFE4" stroke-width="1.5" stroke-linecap="round" stroke-linejoin="round"/>
<path d="M1.83325 8.74992C1.83325 5.20242 4.70242 2.33325 8.24992 2.33325L7.28743 3.93742" stroke="#DCDFE4" stroke-width="1.5" stroke-linecap="round" stroke-linejoin="round"/>
<path d="M16.9583 10.5833C19.2364 10.5833 21.0833 8.73643 21.0833 6.45825C21.0833 4.18008 19.2364 2.33325 16.9583 2.33325C14.6801 2.33325 12.8333 4.18008 12.8333 6.45825C12.8333 8.73643 14.6801 10.5833 16.9583 10.5833Z" stroke="#DCDFE4" stroke-width="1.5" stroke-linecap="round" stroke-linejoin="round"/>
</svg>
