<svg width="22" height="23" viewBox="0 0 22 23" fill="none" xmlns="http://www.w3.org/2000/svg">
<path d="M10.9999 14.8917V14.9925C10.9999 15.2492 10.7983 15.4508 10.5416 15.4508H2.29159C2.03492 15.4508 1.83325 15.2492 1.83325 14.9925V14.8917C1.83325 13.2783 2.23659 12.875 3.86825 12.875H8.96492C10.5966 12.875 10.9999 13.2783 10.9999 14.8917Z" fill="#6154A4"/>
<path d="M2.29159 16.3674C2.03492 16.3674 1.83325 16.5691 1.83325 16.8258V17.7424V18.6499C1.83325 20.2633 2.23659 20.6666 3.86825 20.6666H8.96492C10.5966 20.6666 10.9999 20.2633 10.9999 18.6499V17.7424V16.8258C10.9999 16.5691 10.7983 16.3674 10.5416 16.3674H2.29159Z" fill="#6154A4"/>
<path d="M20.1667 14.25C20.1667 17.7975 17.2975 20.6667 13.75 20.6667L14.7125 19.0625" stroke="#6154A4" stroke-width="1.5" stroke-linecap="round" stroke-linejoin="round"/>
<path d="M1.83325 8.74992C1.83325 5.20242 4.70242 2.33325 8.24992 2.33325L7.28742 3.93742" stroke="#6154A4" stroke-width="1.5" stroke-linecap="round" stroke-linejoin="round"/>
<path d="M16.9583 10.5833C19.2364 10.5833 21.0833 8.73643 21.0833 6.45825C21.0833 4.18008 19.2364 2.33325 16.9583 2.33325C14.6801 2.33325 12.8333 4.18008 12.8333 6.45825C12.8333 8.73643 14.6801 10.5833 16.9583 10.5833Z" fill="#6154A4"/>
</svg>
