<svg width="22" height="23" viewBox="0 0 22 23" fill="none" xmlns="http://www.w3.org/2000/svg">
<path d="M11.8433 2.57168L17.8108 5.78918C18.5075 6.16501 18.5075 7.23751 17.8108 7.61334L11.8433 10.8308C11.3117 11.115 10.6883 11.115 10.1567 10.8308L4.18916 7.61334C3.49249 7.23751 3.49249 6.16501 4.18916 5.78918L10.1567 2.57168C10.6883 2.28751 11.3117 2.28751 11.8433 2.57168Z" stroke="#DCDFE4" stroke-width="1.25" stroke-linecap="round" stroke-linejoin="round"/>
<path d="M3.30916 9.78583L8.85499 12.5633C9.54249 12.9117 9.9825 13.6175 9.9825 14.3875V19.6308C9.9825 20.3917 9.18499 20.8775 8.50666 20.5383L2.96083 17.7608C2.27333 17.4125 1.83333 16.7067 1.83333 15.9367V10.6933C1.83333 9.93249 2.63083 9.44666 3.30916 9.78583Z" stroke="#DCDFE4" stroke-width="1.25" stroke-linecap="round" stroke-linejoin="round"/>
<path d="M18.6908 9.78583L13.145 12.5633C12.4575 12.9117 12.0175 13.6175 12.0175 14.3875V19.6308C12.0175 20.3917 12.815 20.8775 13.4933 20.5383L19.0392 17.7608C19.7267 17.4125 20.1667 16.7067 20.1667 15.9367V10.6933C20.1667 9.93249 19.3692 9.44666 18.6908 9.78583Z" stroke="#DCDFE4" stroke-width="1.25" stroke-linecap="round" stroke-linejoin="round"/>
</svg>
