<svg width="22" height="23" viewBox="0 0 22 23" fill="none" xmlns="http://www.w3.org/2000/svg">
    <path
        d="M11.8434 2.57166L17.8109 5.78916C18.5075 6.16499 18.5075 7.23749 17.8109 7.61333L11.8434 10.8308C11.3117 11.115 10.6884 11.115 10.1567 10.8308L4.18919 7.61333C3.49252 7.23749 3.49252 6.16499 4.18919 5.78916L10.1567 2.57166C10.6884 2.28749 11.3117 2.28749 11.8434 2.57166Z"
        fill="#6154A4" />
    <path
        d="M3.30915 9.78584L8.85498 12.5633C9.54248 12.9117 9.98248 13.6175 9.98248 14.3875V19.6308C9.98248 20.3917 9.18498 20.8775 8.50665 20.5383L2.96081 17.7608C2.27331 17.4125 1.83331 16.7067 1.83331 15.9367V10.6933C1.83331 9.9325 2.63081 9.44667 3.30915 9.78584Z"
        fill="#6154A4" />
    <path
        d="M18.6909 9.78584L13.145 12.5633C12.4575 12.9117 12.0175 13.6175 12.0175 14.3875V19.6308C12.0175 20.3917 12.815 20.8775 13.4934 20.5383L19.0392 17.7608C19.7267 17.4125 20.1667 16.7067 20.1667 15.9367V10.6933C20.1667 9.9325 19.3692 9.44667 18.6909 9.78584Z"
        fill="#6154A4" />
</svg>