<svg width="22" height="23" viewBox="0 0 22 23" fill="none" xmlns="http://www.w3.org/2000/svg">
<path d="M9.71655 7.16528H12.0173C13.2274 7.16528 14.2399 8.189 14.24 9.48853C14.24 9.58819 14.1521 9.67597 14.0525 9.67603C13.9528 9.67603 13.865 9.58822 13.865 9.48853C13.8649 8.44964 13.0694 7.54028 12.0173 7.54028H9.71655C8.81125 7.54029 8.12598 8.33026 8.12573 9.21313C8.12573 9.65984 8.20306 10.0362 8.43823 10.3254C8.60884 10.5353 8.82886 10.6534 9.02515 10.7336L9.21069 10.803L9.21167 10.804L12.905 12.1047L12.908 12.1057C13.231 12.2175 13.5576 12.3775 13.8054 12.6545C14.0133 12.887 14.1973 13.2371 14.24 13.7991L14.2488 14.054C14.2394 15.1998 13.3442 16.1018 12.283 16.1018H9.98218C8.77215 16.1017 7.75952 15.0781 7.75952 13.7786C7.75955 13.679 7.8475 13.5913 7.94702 13.5911C8.0467 13.5911 8.13449 13.6789 8.13452 13.7786C8.13452 14.8174 8.93016 15.7267 9.98218 15.7268H12.283C13.1883 15.7268 13.8736 14.9369 13.8738 14.054C13.8738 13.6072 13.7965 13.2309 13.5613 12.9417C13.3906 12.7318 13.1707 12.6137 12.9744 12.5334L12.7888 12.4641L9.09448 11.1624L9.09155 11.1614L8.85034 11.0676C8.61039 10.9626 8.38008 10.8205 8.19409 10.6125C7.95647 10.3468 7.75073 9.92693 7.75073 9.21313C7.75098 8.06345 8.65036 7.16529 9.71655 7.16528Z" fill="#292D32" stroke="white"/>
<path d="M11 5.94604C11.0997 5.94604 11.1875 6.03385 11.1875 6.13354V17.1335C11.1875 17.2332 11.0997 17.321 11 17.321C10.9003 17.321 10.8125 17.2332 10.8125 17.1335V6.13354C10.8125 6.03385 10.9003 5.94604 11 5.94604Z" fill="#292D32" stroke="white"/>
<path d="M11.0002 2.2793C16.1598 2.27947 20.3538 6.47421 20.3538 11.6338C20.3536 16.7932 16.1597 20.9871 11.0002 20.9873C5.84066 20.9873 1.64593 16.7933 1.64575 11.6338C1.64575 6.4741 5.84055 2.2793 11.0002 2.2793ZM11.0002 2.6543C6.0491 2.6543 2.02075 6.68265 2.02075 11.6338C2.02093 16.5848 6.04921 20.6123 11.0002 20.6123C15.9511 20.6121 19.9786 16.5847 19.9788 11.6338C19.9788 6.68276 15.9512 2.65447 11.0002 2.6543Z" fill="#292D32" stroke="white"/>
</svg>
