<svg width="22" height="23" viewBox="0 0 22 23" fill="none" xmlns="http://www.w3.org/2000/svg">
    <path
        d="M11.6875 15.2268H12.2833C12.8792 15.2268 13.3742 14.6951 13.3742 14.0534C13.3742 13.2559 13.09 13.1001 12.6225 12.9351L11.6967 12.6143V15.2268H11.6875Z"
        fill="#6154A4" />
    <path
        d="M10.9725 2.37502C5.91248 2.39335 1.81498 6.50918 1.83331 11.5692C1.85165 16.6292 5.96748 20.7267 11.0275 20.7083C16.0875 20.69 20.185 16.5742 20.1666 11.5142C20.1483 6.45418 16.0325 2.36585 10.9725 2.37502ZM13.0716 11.6333C13.7866 11.8808 14.7491 12.4125 14.7491 14.0533C14.7491 15.465 13.64 16.6017 12.2833 16.6017H11.6875V17.1333C11.6875 17.5092 11.3758 17.8208 11 17.8208C10.6241 17.8208 10.3125 17.5092 10.3125 17.1333V16.6017H9.98248C8.47915 16.6017 7.25998 15.3367 7.25998 13.7783C7.25998 13.4025 7.57165 13.0908 7.94748 13.0908C8.32331 13.0908 8.63498 13.4025 8.63498 13.7783C8.63498 14.5758 9.23998 15.2267 9.98248 15.2267H10.3125V12.1283L8.92831 11.6333C8.21331 11.3858 7.25081 10.8542 7.25081 9.21335C7.25081 7.80168 8.35998 6.66502 9.71665 6.66502H10.3125V6.13335C10.3125 5.75752 10.6241 5.44585 11 5.44585C11.3758 5.44585 11.6875 5.75752 11.6875 6.13335V6.66502H12.0175C13.5208 6.66502 14.74 7.93002 14.74 9.48835C14.74 9.86418 14.4283 10.1758 14.0525 10.1758C13.6766 10.1758 13.365 9.86418 13.365 9.48835C13.365 8.69085 12.76 8.04002 12.0175 8.04002H11.6875V11.1383L13.0716 11.6333Z"
        fill="#6154A4" />
    <path
        d="M8.63501 9.22254C8.63501 10.02 8.91918 10.1759 9.38668 10.3409L10.3125 10.6617V8.04004H9.71668C9.12084 8.04004 8.63501 8.57171 8.63501 9.22254Z"
        fill="#6154A4" />
</svg>