<svg width="22" height="23" viewBox="0 0 22 23" fill="none" xmlns="http://www.w3.org/2000/svg">
<path d="M8.24998 2.33337C5.84831 2.33337 3.89581 4.28587 3.89581 6.68754C3.89581 9.04337 5.73831 10.95 8.13998 11.0325C8.21331 11.0234 8.28665 11.0234 8.34165 11.0325C8.35998 11.0325 8.36915 11.0325 8.38748 11.0325C8.39665 11.0325 8.39665 11.0325 8.40581 11.0325C10.7525 10.95 12.595 9.04337 12.6041 6.68754C12.6041 4.28587 10.6516 2.33337 8.24998 2.33337Z" fill="#6154A4"/>
<path d="M12.9067 13.4709C10.3492 11.7659 6.17836 11.7659 3.60253 13.4709C2.43836 14.2501 1.79669 15.3042 1.79669 16.4317C1.79669 17.5592 2.43836 18.6042 3.59336 19.3742C4.87669 20.2359 6.56336 20.6667 8.25002 20.6667C9.93669 20.6667 11.6234 20.2359 12.9067 19.3742C14.0617 18.5951 14.7034 17.5501 14.7034 16.4134C14.6942 15.2859 14.0617 14.2409 12.9067 13.4709Z" fill="#6154A4"/>
<path d="M18.3241 7.22834C18.4708 9.00668 17.2058 10.565 15.455 10.7758C15.4458 10.7758 15.4458 10.7758 15.4366 10.7758H15.4091C15.3541 10.7758 15.2991 10.7758 15.2533 10.7942C14.3641 10.84 13.5483 10.5558 12.9341 10.0333C13.8783 9.19001 14.4191 7.92501 14.3091 6.55001C14.245 5.80751 13.9883 5.12918 13.6033 4.55168C13.9516 4.37751 14.355 4.26751 14.7675 4.23084C16.5641 4.07501 18.1683 5.41334 18.3241 7.22834Z" fill="#6154A4"/>
<path d="M15.3173 12.7305C16.3899 12.8139 17.4363 13.1408 18.2314 13.6846L18.4951 13.8799L18.496 13.8809C19.1565 14.4121 19.429 14.9958 19.4169 15.5312L19.4111 15.6377L19.4101 15.6455C19.3655 16.1868 19.0386 16.7257 18.3456 17.1484L18.2021 17.2314L18.2011 17.2324C17.8195 17.4423 17.38 17.5998 16.9091 17.7051C17.0444 17.3944 17.1401 17.0692 17.1884 16.7324L17.2099 16.5469L17.2109 16.5381C17.3198 15.1872 16.7134 13.9464 15.6269 12.9834L15.4033 12.7949L15.3974 12.791L15.3173 12.7305Z" fill="#6154A4" stroke="#6154A4" stroke-width="1.5"/>
</svg>
